<svg width="48" height="48" viewBox="0 0 48 48" fill="none" xmlns="http://www.w3.org/2000/svg">
<g id="Frame 964">
<path id="apartment 2 (Traced)" fill-rule="evenodd" clip-rule="evenodd" d="M7.95181 4.1136C7.59701 4.27205 7.27566 4.61139 7.13899 4.97192C7.06747 5.16043 7.03614 10.6845 7.03614 23.096V40.9488L5.98265 40.9815C5.10101 41.0087 4.88569 41.0464 4.66333 41.2126C4.15769 41.5903 4 41.8981 4 42.507C4 43.1162 4.15788 43.424 4.66361 43.8014L4.92983 44H24H43.0702L43.3364 43.8014C43.8421 43.424 44 43.1162 44 42.507C44 41.8981 43.8423 41.5903 43.3367 41.2126C43.1143 41.0465 42.899 41.0087 42.0183 40.9815L40.9657 40.9489L40.9406 26.0346C40.9157 11.1407 40.9154 11.1199 40.7169 10.8543C40.6076 10.708 40.3985 10.499 40.2521 10.3897C39.9913 10.1952 39.8714 10.1905 34.3106 10.1648L28.6354 10.1385L28.6068 7.54689C28.58 5.1036 28.5669 4.94004 28.3796 4.68951C28.2703 4.54329 28.0611 4.33437 27.9147 4.22514C27.6505 4.02797 27.5788 4.02633 17.9448 4.00553C10.0041 3.98829 8.18843 4.00794 7.95181 4.1136ZM25.5654 21.9835C25.5904 36.8859 25.5907 36.9066 25.7891 37.1722C26.1667 37.6777 26.4748 37.8354 27.0843 37.8354C27.6939 37.8354 28.0019 37.6777 28.3796 37.1722C28.5774 36.9075 28.5784 36.8548 28.6036 25.0658L28.6287 13.2252H33.2542H37.8795V27.0956V40.9659H30.1731H22.4667L22.4382 38.372C22.4113 35.9265 22.3983 35.763 22.2109 35.5124C22.1016 35.3662 21.8924 35.1573 21.746 35.0481C21.4882 34.8556 21.366 34.8494 17.8313 34.8494C14.2967 34.8494 14.1745 34.8556 13.9166 35.0481C13.7702 35.1573 13.5611 35.3662 13.4518 35.5124C13.2644 35.763 13.2514 35.9265 13.2245 38.372L13.196 40.9659H11.6582H10.1205V24.0133V7.06066H17.8305H25.5403L25.5654 21.9835ZM13.2048 11.6841V13.2252H14.747H16.2892V11.6841V10.143H14.747H13.2048V11.6841ZM19.3735 11.6841V13.2252H20.9157H22.4578V11.6841V10.143H20.9157H19.3735V11.6841ZM13.2048 17.8487V19.3898H14.747H16.2892V17.8487V16.3075H14.747H13.2048V17.8487ZM19.3735 17.8487V19.3898H20.9157H22.4578V17.8487V16.3075H20.9157H19.3735V17.8487ZM31.7108 17.8487V19.3898H33.253H34.7952V17.8487V16.3075H33.253H31.7108V17.8487ZM13.2048 24.0133V25.5544H14.747H16.2892V24.0133V22.4721H14.747H13.2048V24.0133ZM19.3735 24.0133V25.5544H20.9157H22.4578V24.0133V22.4721H20.9157H19.3735V24.0133ZM31.7108 24.0133V25.5544H33.253H34.7952V24.0133V22.4721H33.253H31.7108V24.0133ZM13.2048 30.1778V31.719H14.747H16.2892V30.1778V28.6367H14.747H13.2048V30.1778ZM19.3735 30.1778V31.719H20.9157H22.4578V30.1778V28.6367H20.9157H19.3735V30.1778ZM31.7108 30.1778V31.719H33.253H34.7952V30.1778V28.6367H33.253H31.7108V30.1778ZM31.7108 36.3424V37.8836H33.253H34.7952V36.3424V34.8013H33.253H31.7108V36.3424ZM19.3735 39.4247V40.9659H17.8313H16.2892V39.4247V37.8836H17.8313H19.3735V39.4247Z" fill="#70808A" fill-opacity="0.7"/>
</g>
</svg>
